<svg xmlns="http://www.w3.org/2000/svg" version="1.1" xmlns:xlink="http://www.w3.org/1999/xlink" xmlns:svgjs="http://svgjs.com/svgjs" width="1000" height="1000"><rect width="1000" height="1000" rx="150" ry="150" fill="#ffffff"></rect><g transform="matrix(1,0,0,1,0,0)"><svg xmlns="http://www.w3.org/2000/svg" version="1.1" xmlns:xlink="http://www.w3.org/1999/xlink" xmlns:svgjs="http://svgjs.com/svgjs" width="866.000000pt" height="894.000000pt"><svg version="1.0" xmlns="http://www.w3.org/2000/svg" width="866.000000pt" height="894.000000pt" viewBox="0 0 866.000000 894.000000" preserveAspectRatio="xMidYMid meet">

<g transform="translate(0.000000,894.000000) scale(0.100000,-0.100000)" fill="#000000" stroke="none">
<path d="M110 4465 l0 -4375 4225 0 4225 0 0 4375 0 4375 -4225 0 -4225 0 0
-4375z m2545 3454 c109 -9 125 -12 240 -44 116 -33 131 -38 225 -78 194 -84
296 -154 450 -307 123 -122 136 -138 208 -245 101 -150 189 -357 226 -530 10
-44 21 -96 27 -115 21 -79 33 -483 21 -707 -7 -120 -16 -234 -21 -253 -5 -19
-14 -60 -21 -90 -16 -82 -41 -171 -56 -207 -8 -17 -14 -36 -14 -43 0 -21 -73
-163 -133 -260 -139 -223 -338 -409 -564 -527 -18 -9 -33 -19 -33 -23 0 -3 15
-14 33 -25 17 -10 34 -21 37 -24 3 -3 38 -28 78 -55 153 -102 300 -251 410
-415 177 -263 259 -503 283 -830 12 -166 5 -663 -11 -781 -37 -271 -97 -446
-230 -670 -68 -114 -209 -277 -315 -362 -139 -112 -330 -215 -460 -249 -130
-34 -169 -42 -230 -52 -47 -7 -353 -11 -925 -11 l-855 -1 -3 3450 c-1 1898 0
3456 3 3462 3 10 164 12 762 8 417 -3 808 -10 868 -16z m2620 10 c8 -12 21
-178 34 -439 6 -102 15 -261 21 -355 5 -93 12 -206 14 -250 3 -44 12 -206 21
-360 20 -353 32 -607 44 -900 6 -126 13 -268 16 -315 4 -47 11 -168 16 -270 5
-102 15 -291 22 -420 7 -129 15 -230 20 -223 4 6 12 51 18 100 13 108 37 297
49 378 5 33 16 116 25 185 9 69 20 152 25 185 5 33 16 116 25 185 8 69 20 157
25 195 5 39 16 124 25 190 8 66 20 147 25 180 5 33 17 112 25 175 29 211 34
245 42 285 l8 40 382 3 c369 2 382 2 388 -17 7 -24 19 -108 51 -376 8 -71 19
-152 24 -180 5 -27 17 -115 25 -195 9 -80 20 -161 26 -181 5 -20 9 -52 9 -72
0 -20 4 -58 10 -84 5 -26 15 -86 21 -133 10 -85 14 -109 44 -320 9 -63 20
-142 24 -175 17 -133 32 -244 44 -310 11 -67 13 -57 24 230 13 326 30 700 38
835 5 78 16 298 35 695 8 154 34 659 50 935 5 85 13 261 20 390 6 129 14 271
18 315 l7 80 374 3 c206 1 378 -1 381 -5 4 -5 4 -60 -1 -123 -4 -63 -10 -180
-13 -260 -4 -80 -11 -226 -16 -325 -10 -174 -23 -452 -41 -870 -24 -579 -29
-680 -39 -790 -5 -66 -10 -167 -10 -225 0 -58 -4 -152 -10 -210 -5 -58 -16
-271 -25 -475 -9 -203 -18 -406 -20 -450 -3 -44 -9 -186 -14 -315 -16 -414
-31 -731 -41 -875 -14 -206 -29 -453 -35 -595 -3 -69 -10 -190 -15 -270 -13
-187 -28 -451 -42 -715 -5 -115 -13 -257 -17 -315 l-6 -105 -351 -3 -352 -2
-6 37 c-3 21 -13 108 -22 193 -8 85 -19 187 -24 225 -4 39 -16 140 -25 225 -9
85 -21 187 -25 225 -14 112 -50 425 -75 660 -27 252 -58 513 -75 630 -5 33
-14 105 -19 160 -6 55 -13 114 -17 130 -3 17 -10 62 -14 100 -9 77 -37 289
-50 375 -18 122 -43 288 -50 340 -21 140 -40 260 -50 310 -6 30 -14 74 -19 98
-9 48 -27 75 -35 51 -17 -54 -26 -93 -36 -154 -5 -38 -14 -92 -20 -120 -11
-56 -25 -153 -74 -520 -9 -66 -21 -147 -26 -180 -5 -33 -14 -103 -20 -155 -5
-52 -13 -104 -16 -115 -3 -11 -9 -58 -14 -105 -16 -149 -40 -353 -50 -435 -5
-44 -14 -123 -20 -175 -5 -52 -14 -130 -20 -172 -24 -184 -31 -240 -41 -353
-6 -66 -14 -154 -19 -195 -4 -41 -13 -131 -19 -200 -6 -69 -15 -161 -21 -205
-5 -44 -12 -100 -14 -125 -2 -25 -11 -112 -20 -195 -9 -82 -20 -191 -25 -242
-5 -50 -12 -97 -16 -102 -4 -8 -125 -11 -374 -11 l-368 0 -11 98 c-6 53 -18
178 -27 277 -8 99 -17 209 -20 245 -13 157 -23 287 -34 450 -6 96 -16 205 -21
243 -6 37 -10 96 -10 131 0 34 -4 98 -10 142 -5 43 -15 153 -21 244 -6 91 -15
212 -19 270 -5 58 -16 206 -25 330 -30 413 -63 841 -75 985 -21 236 -52 677
-69 960 -6 105 -16 235 -21 290 -6 55 -10 133 -10 172 0 40 -4 103 -10 140 -5
38 -15 158 -21 268 -13 223 -19 320 -44 675 -9 135 -21 308 -25 385 -5 77 -13
203 -19 280 -8 124 -16 317 -12 338 2 12 769 9 776 -4z"></path>
<path d="M1814 7155 c-2 -5 -3 -523 -2 -1150 l3 -1140 285 -3 c275 -3 483 9
496 30 3 4 13 8 24 8 27 0 153 56 213 94 66 43 182 155 233 226 22 30 59 96
83 145 23 50 47 98 52 107 5 10 9 26 9 36 0 10 4 22 9 28 13 13 30 112 42 239
14 145 6 683 -11 750 -24 93 -43 160 -50 170 -4 6 -11 21 -15 35 -8 26 -45 86
-80 131 -11 15 -29 39 -40 54 -19 27 -147 135 -160 135 -3 0 -24 12 -47 26
-22 14 -71 38 -107 52 l-66 26 -434 5 c-285 4 -435 3 -437 -4z"></path>
<path d="M1810 2926 l0 -1156 408 3 c485 5 516 9 672 85 54 27 95 57 147 110
62 61 143 169 143 188 0 3 7 22 16 42 30 69 33 77 44 127 22 96 29 202 29 490
0 377 -12 508 -61 650 -22 64 -75 171 -96 193 -6 7 -17 23 -23 34 -29 55 -116
145 -196 205 -40 29 -75 53 -78 53 -4 0 -19 8 -33 18 -24 16 -56 30 -137 62
-91 36 -164 43 -497 47 l-338 5 0 -1156z"></path>
</g>
</svg></svg></g></svg>